<svg width="24" height="24" viewBox="0 0 24 24" fill="none" xmlns="http://www.w3.org/2000/svg">
<path d="M11.9992 5.25L12.3528 4.89642C12.259 4.80266 12.1318 4.74999 11.9992 4.75C11.8666 4.75001 11.7394 4.8027 11.6457 4.89647L11.9992 5.25ZM11.4993 18.75C11.4993 19.0261 11.7231 19.25 11.9993 19.25C12.2754 19.25 12.4993 19.0261 12.4993 18.75L11.4993 18.75ZM6.39642 10.1465C6.20117 10.3417 6.2012 10.6583 6.39647 10.8536C6.59175 11.0488 6.90833 11.0488 7.10358 10.8535L6.39642 10.1465ZM16.8965 10.8536C17.0917 11.0488 17.4083 11.0488 17.6036 10.8535C17.7988 10.6583 17.7988 10.3417 17.6035 10.1464L16.8965 10.8536ZM11.4992 5.25L11.4993 18.75L12.4993 18.75L12.4992 5.25L11.4992 5.25ZM7.10358 10.8535L12.3528 5.60353L11.6457 4.89647L6.39642 10.1465L7.10358 10.8535ZM11.6457 5.60358L16.8965 10.8536L17.6035 10.1464L12.3528 4.89642L11.6457 5.60358Z" fill="#4D4D4D"/>
</svg>
