<svg width="24" height="24" viewBox="0 0 24 24" fill="none" xmlns="http://www.w3.org/2000/svg">
<path d="M12 21C16.9706 21 21 16.9706 21 12C21 7.02948 16.9706 3.00005 12 3.00005C7.02944 3.00005 3 7.02948 3 12C3 16.9706 7.02944 21 12 21Z" stroke="#4D4D4D" stroke-miterlimit="10" stroke-linecap="round" stroke-linejoin="round"/>
<path d="M13.3125 12L12 9.75005L10.6875 12C10.5589 12.2287 10.4941 12.4878 10.5 12.75C10.5 13.1479 10.658 13.5294 10.9393 13.8107C11.2206 14.092 11.6022 14.25 12 14.25C12.3978 14.25 12.7794 14.092 13.0607 13.8107C13.342 13.5294 13.5 13.1479 13.5 12.75C13.5059 12.4878 13.4411 12.2287 13.3125 12Z" stroke="#4D4D4D" stroke-miterlimit="10" stroke-linecap="round" stroke-linejoin="round"/>
</svg>
