<svg width="24" height="24" viewBox="0 0 24 24" fill="none" xmlns="http://www.w3.org/2000/svg">
<path d="M3.75 15.7501L3.39645 15.3965C3.30268 15.4903 3.25 15.6175 3.25 15.7501H3.75ZM3.25 23.2501C3.25 23.5262 3.47386 23.7501 3.75 23.7501C4.02614 23.7501 4.25 23.5262 4.25 23.2501H3.25ZM20.75 15.7501C20.75 15.4739 20.5261 15.2501 20.25 15.2501C19.9739 15.2501 19.75 15.4739 19.75 15.7501H20.75ZM19.75 23.2501C19.75 23.5262 19.9739 23.7501 20.25 23.7501C20.5261 23.7501 20.75 23.5262 20.75 23.2501H19.75ZM8.60355 5.60361C8.79882 5.40835 8.79882 5.09177 8.60355 4.89651C8.40829 4.70125 8.09171 4.70125 7.89645 4.89651L8.60355 5.60361ZM0.396447 12.3965C0.201184 12.5918 0.201184 12.9084 0.396447 13.1036C0.591709 13.2989 0.908291 13.2989 1.10355 13.1036L0.396447 12.3965ZM14.6036 5.60361C14.7988 5.40835 14.7988 5.09177 14.6036 4.89651C14.4083 4.70125 14.0917 4.70125 13.8964 4.89651L14.6036 5.60361ZM20.6036 5.60361C20.7988 5.40835 20.7988 5.09177 20.6036 4.89651C20.4083 4.70125 20.0917 4.70125 19.8964 4.89651L20.6036 5.60361ZM9.39645 15.3965C9.20118 15.5918 9.20118 15.9084 9.39645 16.1036C9.59171 16.2989 9.90829 16.2989 10.1036 16.1036L9.39645 15.3965ZM23.6036 8.60361C23.7988 8.40835 23.7988 8.09177 23.6036 7.89651C23.4083 7.70125 23.0917 7.70125 22.8964 7.89651L23.6036 8.60361ZM15.3964 15.3965C15.2012 15.5918 15.2012 15.9084 15.3964 16.1036C15.5917 16.2989 15.9083 16.2989 16.1036 16.1036L15.3964 15.3965ZM1.75 5.75006H22.25V4.75006H1.75V5.75006ZM22.75 6.25006V14.7501H23.75V6.25006H22.75ZM22.25 15.2501H1.75V16.2501H22.25V15.2501ZM1.25 14.7501V6.25006H0.25V14.7501H1.25ZM1.75 15.2501C1.47386 15.2501 1.25 15.0262 1.25 14.7501H0.25C0.25 15.5785 0.921573 16.2501 1.75 16.2501V15.2501ZM22.75 14.7501C22.75 15.0262 22.5261 15.2501 22.25 15.2501V16.2501C23.0784 16.2501 23.75 15.5785 23.75 14.7501H22.75ZM22.25 5.75006C22.5261 5.75006 22.75 5.97392 22.75 6.25006H23.75C23.75 5.42163 23.0784 4.75006 22.25 4.75006V5.75006ZM1.75 4.75006C0.921573 4.75006 0.25 5.42163 0.25 6.25006H1.25C1.25 5.97392 1.47386 5.75006 1.75 5.75006V4.75006ZM3.25 15.7501V23.2501H4.25V15.7501H3.25ZM19.75 15.7501V23.2501H20.75V15.7501H19.75ZM6 4.25006C7.10457 4.25006 8 3.35463 8 2.25006H7C7 2.80235 6.55228 3.25006 6 3.25006V4.25006ZM8 2.25006C8 1.14549 7.10457 0.250061 6 0.250061V1.25006C6.55228 1.25006 7 1.69778 7 2.25006H8ZM6 0.250061C4.89543 0.250061 4 1.14549 4 2.25006H5C5 1.69778 5.44772 1.25006 6 1.25006V0.250061ZM4 2.25006C4 3.35463 4.89543 4.25006 6 4.25006V3.25006C5.44772 3.25006 5 2.80235 5 2.25006H4ZM18 4.25006C19.1046 4.25006 20 3.35463 20 2.25006H19C19 2.80235 18.5523 3.25006 18 3.25006V4.25006ZM20 2.25006C20 1.14549 19.1046 0.250061 18 0.250061V1.25006C18.5523 1.25006 19 1.69778 19 2.25006H20ZM18 0.250061C16.8954 0.250061 16 1.14549 16 2.25006H17C17 1.69778 17.4477 1.25006 18 1.25006V0.250061ZM16 2.25006C16 3.35463 16.8954 4.25006 18 4.25006V3.25006C17.4477 3.25006 17 2.80235 17 2.25006H16ZM7.89645 4.89651L0.396447 12.3965L1.10355 13.1036L8.60355 5.60361L7.89645 4.89651ZM13.8964 4.89651L3.39645 15.3965L4.10355 16.1036L14.6036 5.60361L13.8964 4.89651ZM19.8964 4.89651L9.39645 15.3965L10.1036 16.1036L20.6036 5.60361L19.8964 4.89651ZM22.8964 7.89651L15.3964 15.3965L16.1036 16.1036L23.6036 8.60361L22.8964 7.89651Z" fill="#4D4D4D"/>
</svg>
