<svg width="24" height="24" viewBox="0 0 24 24" fill="none" xmlns="http://www.w3.org/2000/svg">
<path d="M7.33333 2.50002H16.6667V1.50002H7.33333V2.50002ZM21.5 7.33335V16.6667H22.5V7.33335H21.5ZM16.6667 21.5H7.33333V22.5H16.6667V21.5ZM2.5 16.6667V7.33335H1.5V16.6667H2.5ZM7.33333 21.5C4.66396 21.5 2.5 19.3361 2.5 16.6667H1.5C1.5 19.8883 4.11167 22.5 7.33333 22.5V21.5ZM21.5 16.6667C21.5 19.3361 19.336 21.5 16.6667 21.5V22.5C19.8883 22.5 22.5 19.8883 22.5 16.6667H21.5ZM16.6667 2.50002C19.336 2.50002 21.5 4.66397 21.5 7.33335H22.5C22.5 4.11169 19.8883 1.50002 16.6667 1.50002V2.50002ZM7.33333 1.50002C4.11167 1.50002 1.5 4.11169 1.5 7.33335H2.5C2.5 4.66397 4.66396 2.50002 7.33333 2.50002V1.50002ZM12 16.9445C14.7307 16.9445 16.9445 14.7308 16.9445 12H15.9445C15.9445 14.1785 14.1785 15.9445 12 15.9445V16.9445ZM16.9445 12C16.9445 9.26927 14.7307 7.05556 12 7.05556V8.05556C14.1785 8.05556 15.9445 9.82155 15.9445 12H16.9445ZM12 7.05556C9.26926 7.05556 7.05556 9.26927 7.05556 12H8.05556C8.05556 9.82155 9.82155 8.05556 12 8.05556V7.05556ZM7.05556 12C7.05556 14.7308 9.26926 16.9445 12 16.9445V15.9445C9.82155 15.9445 8.05556 14.1785 8.05556 12H7.05556ZM18.0333 5.91112C18.0333 5.88043 18.0582 5.85556 18.0889 5.85556V6.85556C18.6105 6.85556 19.0333 6.43272 19.0333 5.91112H18.0333ZM18.0889 5.85556C18.1196 5.85556 18.1445 5.88043 18.1445 5.91112H17.1445C17.1445 6.43272 17.5673 6.85556 18.0889 6.85556V5.85556ZM18.1445 5.91112C18.1445 5.9418 18.1196 5.96667 18.0889 5.96667V4.96667C17.5673 4.96667 17.1445 5.38951 17.1445 5.91112H18.1445ZM18.0889 5.96667C18.0582 5.96667 18.0333 5.9418 18.0333 5.91112H19.0333C19.0333 5.38951 18.6105 4.96667 18.0889 4.96667V5.96667Z" fill="#4D4D4D"/>
</svg>
