<svg width="24" height="24" viewBox="0 0 24 24" fill="none" xmlns="http://www.w3.org/2000/svg">
<g clip-path="url(#clip0_1638_23276)">
<path d="M0.750092 4.50002V4.00002C0.473949 4.00002 0.250092 4.22387 0.250092 4.50002H0.750092ZM12.0001 14.775L11.6629 15.1442C11.8539 15.3186 12.1463 15.3186 12.3373 15.1442L12.0001 14.775ZM23.2501 4.50002H23.7501C23.7501 4.22387 23.5262 4.00002 23.2501 4.00002V4.50002ZM23.2501 19.5V20C23.5262 20 23.7501 19.7762 23.7501 19.5H23.2501ZM0.750092 19.5H0.250092C0.250092 19.7762 0.473949 20 0.750092 20L0.750092 19.5ZM0.412899 4.8692L11.6629 15.1442L12.3373 14.4058L1.08728 4.13083L0.412899 4.8692ZM12.3373 15.1442L23.5873 4.8692L22.9129 4.13083L11.6629 14.4058L12.3373 15.1442ZM0.750092 5.00002H23.2501V4.00002H0.750092V5.00002ZM22.7501 4.50002V19.5H23.7501V4.50002H22.7501ZM23.2501 19H0.750092V20H23.2501V19ZM1.25009 19.5V4.50002H0.250092V19.5H1.25009Z" fill="#4D4D4D"/>
</g>
<defs>
<clipPath id="clip0_1638_23276">
<rect width="24" height="24" fill="white"/>
</clipPath>
</defs>
</svg>
