<svg width="24" height="24" viewBox="0 0 24 24" fill="none" xmlns="http://www.w3.org/2000/svg">
<g clip-path="url(#clip0_1639_22514)">
<path d="M6 23.2501L18 18.0001M18 23.2501L6 18.0001M12 0.750061C11.2089 0.750046 10.4256 0.906474 9.6952 1.21034C8.96479 1.51421 8.30169 1.95953 7.74404 2.52066C7.1864 3.08179 6.74522 3.74765 6.44591 4.47994C6.1466 5.21223 5.99505 5.99648 6 6.78756C6 12.2251 12 17.6626 12 17.6626C12 17.6626 18 12.1876 18 6.78756C18.0049 5.99648 17.8534 5.21223 17.5541 4.47994C17.2548 3.74765 16.8136 3.08179 16.2559 2.52066C15.6983 1.95953 15.0352 1.51421 14.3048 1.21034C13.5744 0.906474 12.7911 0.750046 12 0.750061ZM14.25 6.75006C14.25 7.9927 13.2426 9.00006 12 9.00006C10.7574 9.00006 9.75 7.9927 9.75 6.75006C9.75 5.50742 10.7574 4.50006 12 4.50006C13.2426 4.50006 14.25 5.50742 14.25 6.75006Z" stroke="#4D4D4D" stroke-miterlimit="10" stroke-linecap="round" stroke-linejoin="round"/>
</g>
<defs>
<clipPath id="clip0_1639_22514">
<rect width="24" height="24" fill="white"/>
</clipPath>
</defs>
</svg>
