<svg width="24" height="24" viewBox="0 0 24 24" fill="none" xmlns="http://www.w3.org/2000/svg">
<path d="M9.3 8.80933C9.3 7.849 10.0353 6.3 12.1233 6.3C14.2113 6.3 14.6333 8.176 14.6333 8.80933C14.6333 9.44267 14.4367 10.1733 13.281 11.3287C12.1257 12.484 11.9667 13.0843 11.9667 13.6333V14.3M23 12C23 18.0751 18.0751 23 12 23C5.92487 23 1 18.0751 1 12C1 5.92487 5.92487 1 12 1C18.0751 1 23 5.92487 23 12ZM12.75 16.925C12.75 17.3392 12.4142 17.675 12 17.675C11.5858 17.675 11.25 17.3392 11.25 16.925C11.25 16.5108 11.5858 16.175 12 16.175C12.4142 16.175 12.75 16.5108 12.75 16.925Z" stroke="#4D4D4D" stroke-miterlimit="10" stroke-linecap="round" stroke-linejoin="round"/>
</svg>
