<svg width="24" height="24" viewBox="0 0 24 24" fill="none" xmlns="http://www.w3.org/2000/svg">
<g clip-path="url(#clip0_1638_23272)">
<path d="M20.528 10.5525C20.7514 12.3362 20.4119 14.1452 19.5571 15.7265C18.7022 17.3079 17.3746 18.5826 15.7599 19.3726C14.1452 20.1626 12.324 20.4284 10.5508 20.1329C8.77766 19.8373 7.14114 18.9951 5.86998 17.724M20.528 10.5525L23.2501 14.25M20.528 10.5525L17.2501 13.5M3.39948 12.6075C3.26149 11.3999 3.38021 10.1768 3.74787 9.01826C4.11552 7.85972 4.72381 6.79194 5.53288 5.88487C6.34195 4.9778 7.33354 4.25191 8.44269 3.75476C9.55184 3.25761 10.7535 3.00042 11.969 3.00004C13.1016 2.99854 14.2234 3.22078 15.2699 3.65401C16.3164 4.08723 17.2671 4.72291 18.0672 5.52454M3.39948 12.6075L0.750092 9.00005M3.39948 12.6075L6.75009 9.75005" stroke="#4D4D4D" stroke-miterlimit="10" stroke-linecap="round" stroke-linejoin="round"/>
</g>
<defs>
<clipPath id="clip0_1638_23272">
<rect width="24" height="24" fill="white"/>
</clipPath>
</defs>
</svg>
