<svg width="24" height="24" viewBox="0 0 24 24" fill="none" xmlns="http://www.w3.org/2000/svg">
<path d="M2.75 3.00006C1.64543 3.00006 0.75 3.89549 0.75 5.00006V16.0001C0.75 17.1046 1.64543 18.0001 2.75 18.0001H7.5V22.1251L12 18.0001H21.25C22.3546 18.0001 23.25 17.1046 23.25 16.0001V5.00006C23.25 3.89549 22.3546 3.00006 21.25 3.00006H2.75Z" stroke="#4D4D4D" stroke-miterlimit="10" stroke-linecap="round" stroke-linejoin="round"/>
<path d="M7.5 11.2501C7.91421 11.2501 8.25 10.9143 8.25 10.5001C8.25 10.0858 7.91421 9.75006 7.5 9.75006C7.08579 9.75006 6.75 10.0858 6.75 10.5001C6.75 10.9143 7.08579 11.2501 7.5 11.2501Z" stroke="#4D4D4D" stroke-miterlimit="10" stroke-linecap="round" stroke-linejoin="round"/>
<path d="M12 11.2501C12.4142 11.2501 12.75 10.9143 12.75 10.5001C12.75 10.0858 12.4142 9.75006 12 9.75006C11.5858 9.75006 11.25 10.0858 11.25 10.5001C11.25 10.9143 11.5858 11.2501 12 11.2501Z" stroke="#4D4D4D" stroke-miterlimit="10" stroke-linecap="round" stroke-linejoin="round"/>
<path d="M16.5 11.2501C16.9142 11.2501 17.25 10.9143 17.25 10.5001C17.25 10.0858 16.9142 9.75006 16.5 9.75006C16.0858 9.75006 15.75 10.0858 15.75 10.5001C15.75 10.9143 16.0858 11.2501 16.5 11.2501Z" stroke="#4D4D4D" stroke-miterlimit="10" stroke-linecap="round" stroke-linejoin="round"/>
</svg>
