<svg width="24" height="24" viewBox="0 0 24 24" fill="none" xmlns="http://www.w3.org/2000/svg">
<g clip-path="url(#clip0_1639_22469)">
<path d="M12 6.75005V15.75M12 15.75C10.7574 15.75 9.75 16.7574 9.75 18C9.75 19.2427 10.7574 20.25 12 20.25C13.2426 20.25 14.25 19.2427 14.25 18C14.25 16.7574 13.2426 15.75 12 15.75ZM15 13.6875V3.75005C15 2.9544 14.6839 2.19133 14.1213 1.62873C13.5587 1.06612 12.7956 0.750046 12 0.750046C11.2044 0.750046 10.4413 1.06612 9.87868 1.62873C9.31607 2.19133 9 2.9544 9 3.75005V13.6875C8.08276 14.3262 7.39329 15.241 7.03194 16.2986C6.67059 17.3563 6.65622 18.5017 6.99092 19.5681C7.32562 20.6345 7.99193 21.5663 8.89285 22.2278C9.79378 22.8893 10.8823 23.246 12 23.246C13.1177 23.246 14.2062 22.8893 15.1071 22.2278C16.0081 21.5663 16.6744 20.6345 17.0091 19.5681C17.3438 18.5017 17.3294 17.3563 16.9681 16.2986C16.6067 15.241 15.9172 14.3262 15 13.6875Z" stroke="#4D4D4D" stroke-miterlimit="10" stroke-linecap="round" stroke-linejoin="round"/>
</g>
<defs>
<clipPath id="clip0_1639_22469">
<rect width="24" height="24" fill="white"/>
</clipPath>
</defs>
</svg>
