<svg width="24" height="24" viewBox="0 0 24 24" fill="none" xmlns="http://www.w3.org/2000/svg">
<path d="M11.5 13C11.5 13.2761 11.7239 13.5 12 13.5C12.2761 13.5 12.5 13.2761 12.5 13H11.5ZM12.5 7C12.5 6.72386 12.2761 6.5 12 6.5C11.7239 6.5 11.5 6.72386 11.5 7H12.5ZM21.5 12C21.5 17.2467 17.2467 21.5 12 21.5V22.5C17.799 22.5 22.5 17.799 22.5 12H21.5ZM12 21.5C6.75329 21.5 2.5 17.2467 2.5 12H1.5C1.5 17.799 6.20101 22.5 12 22.5V21.5ZM2.5 12C2.5 6.75329 6.75329 2.5 12 2.5V1.5C6.20101 1.5 1.5 6.20101 1.5 12H2.5ZM12 2.5C17.2467 2.5 21.5 6.75329 21.5 12H22.5C22.5 6.20101 17.799 1.5 12 1.5V2.5ZM12.5 13V7H11.5V13H12.5ZM12.25 16.625C12.25 16.7631 12.1381 16.875 12 16.875V17.875C12.6904 17.875 13.25 17.3154 13.25 16.625H12.25ZM12 16.875C11.8619 16.875 11.75 16.7631 11.75 16.625H10.75C10.75 17.3154 11.3096 17.875 12 17.875V16.875ZM11.75 16.625C11.75 16.4869 11.8619 16.375 12 16.375V15.375C11.3096 15.375 10.75 15.9346 10.75 16.625H11.75ZM12 16.375C12.1381 16.375 12.25 16.4869 12.25 16.625H13.25C13.25 15.9346 12.6904 15.375 12 15.375V16.375Z" fill="#4D4D4D"/>
</svg>
