<svg width="16" height="16" viewBox="0 0 16 16" fill="none" xmlns="http://www.w3.org/2000/svg">
  <circle cx="8" cy="8" r="7.5" stroke="#4D4D4D"/>
  <path d="M7.50019 8.62651C7.50019 8.90265 7.72405 9.12651 8.00019 9.12651C8.27633 9.12651 8.50019 8.90265 8.50019 8.62651H7.50019ZM8.50019 4C8.50019 3.72386 8.27633 3.5 8.00019 3.5C7.72405 3.5 7.50019 3.72386 7.50019 4H8.50019ZM8.50019 8.62651V4H7.50019V8.62651H8.50019ZM8.0785 11.4217C8.0785 11.4649 8.04344 11.5 8.00019 11.5V12.5C8.59572 12.5 9.0785 12.0172 9.0785 11.4217H8.0785ZM8.00019 11.5C7.95694 11.5 7.92188 11.4649 7.92188 11.4217H6.92188C6.92188 12.0172 7.40465 12.5 8.00019 12.5V11.5ZM7.92188 11.4217C7.92188 11.3784 7.95694 11.3434 8.00019 11.3434V10.3434C7.40465 10.3434 6.92188 10.8262 6.92188 11.4217H7.92188ZM8.00019 11.3434C8.04344 11.3434 8.0785 11.3784 8.0785 11.4217H9.0785C9.0785 10.8262 8.59572 10.3434 8.00019 10.3434V11.3434Z" fill="#4D4D4D"/>
</svg>
