<svg width="24" height="24" viewBox="0 0 24 24" fill="none" xmlns="http://www.w3.org/2000/svg">
<path d="M6.25 11.9993L5.89642 12.3528C5.80266 12.259 5.74999 12.1318 5.75 11.9992C5.75001 11.8666 5.8027 11.7394 5.89647 11.6457L6.25 11.9993ZM16.75 11.4993C17.0261 11.4993 17.25 11.7231 17.25 11.9993C17.25 12.2754 17.0261 12.4993 16.75 12.4993V11.4993ZM11.1465 6.39642C11.3417 6.20117 11.6583 6.2012 11.8536 6.39647C12.0488 6.59175 12.0488 6.90833 11.8535 7.10358L11.1465 6.39642ZM11.8536 16.8965C12.0488 17.0917 12.0488 17.4083 11.8535 17.6036C11.6583 17.7988 11.3417 17.7988 11.1464 17.6035L11.8536 16.8965ZM6.25 11.4993H16.75V12.4993H6.25V11.4993ZM11.8535 7.10358L6.60353 12.3528L5.89647 11.6457L11.1465 6.39642L11.8535 7.10358ZM6.60358 11.6457L11.8536 16.8965L11.1464 17.6035L5.89642 12.3528L6.60358 11.6457Z" fill="#4D4D4D"/>
<path d="M22 12C22 17.5228 17.5228 22 12 22C6.47715 22 2 17.5228 2 12C2 6.47715 6.47715 2 12 2C17.5228 2 22 6.47715 22 12Z" stroke="#4D4D4D" stroke-miterlimit="10" stroke-linecap="round" stroke-linejoin="round"/>
</svg>
