<svg width="24" height="24" viewBox="0 0 24 24" fill="none" xmlns="http://www.w3.org/2000/svg">
<path d="M18.75 11.9993L19.1036 12.3528C19.1973 12.259 19.25 12.1318 19.25 11.9992C19.25 11.8666 19.1973 11.7394 19.1035 11.6457L18.75 11.9993ZM5.25 11.4993C4.97386 11.4993 4.75 11.7231 4.75 11.9993C4.75 12.2754 4.97386 12.4993 5.25 12.4993V11.4993ZM13.8535 6.39642C13.6583 6.20117 13.3417 6.2012 13.1464 6.39647C12.9512 6.59175 12.9512 6.90833 13.1465 7.10358L13.8535 6.39642ZM13.1464 16.8965C12.9512 17.0917 12.9512 17.4083 13.1465 17.6036C13.3417 17.7988 13.6583 17.7988 13.8536 17.6035L13.1464 16.8965ZM18.75 11.4993H5.25V12.4993H18.75V11.4993ZM13.1465 7.10358L18.3965 12.3528L19.1035 11.6457L13.8535 6.39642L13.1465 7.10358ZM18.3964 11.6457L13.1464 16.8965L13.8536 17.6035L19.1036 12.3528L18.3964 11.6457Z" fill="#4D4D4D"/>
</svg>
