<svg width="24" height="24" viewBox="0 0 24 24" fill="none" xmlns="http://www.w3.org/2000/svg">
<path d="M23.5 11.9993L23.8536 12.3528C23.9473 12.259 24 12.1318 24 11.9992C24 11.8666 23.9473 11.7394 23.8535 11.6457L23.5 11.9993ZM1 11.4993C0.723858 11.4993 0.5 11.7231 0.5 11.9993C0.5 12.2754 0.723858 12.4993 1 12.4993V11.4993ZM18.6035 6.39642C18.4083 6.20117 18.0917 6.2012 17.8964 6.39647C17.7012 6.59175 17.7012 6.90833 17.8965 7.10358L18.6035 6.39642ZM17.8964 16.8965C17.7012 17.0917 17.7012 17.4083 17.8965 17.6036C18.0917 17.7988 18.4083 17.7988 18.6036 17.6035L17.8964 16.8965ZM23.5 11.4993H1V12.4993H23.5V11.4993ZM17.8965 7.10358L23.1465 12.3528L23.8535 11.6457L18.6035 6.39642L17.8965 7.10358ZM23.1464 11.6457L17.8964 16.8965L18.6036 17.6035L23.8536 12.3528L23.1464 11.6457Z" fill="#4D4D4D"/>
</svg>
