<svg width="24" height="24" viewBox="0 0 24 24" fill="none" xmlns="http://www.w3.org/2000/svg">
<path d="M12.0007 18.75L11.6472 19.1036C11.741 19.1973 11.8682 19.25 12.0008 19.25C12.1334 19.25 12.2606 19.1973 12.3543 19.1035L12.0007 18.75ZM12.5007 5.25C12.5007 4.97386 12.2769 4.75 12.0007 4.75C11.7246 4.75 11.5007 4.97386 11.5007 5.25L12.5007 5.25ZM17.6036 13.8535C17.7988 13.6583 17.7988 13.3417 17.6035 13.1464C17.4083 12.9512 17.0917 12.9512 16.8964 13.1465L17.6036 13.8535ZM7.10353 13.1464C6.90825 12.9512 6.59167 12.9512 6.39642 13.1465C6.20117 13.3417 6.2012 13.6583 6.39647 13.8536L7.10353 13.1464ZM12.5007 18.75L12.5007 5.25L11.5007 5.25L11.5007 18.75L12.5007 18.75ZM16.8964 13.1465L11.6472 18.3965L12.3543 19.1035L17.6036 13.8535L16.8964 13.1465ZM12.3543 18.3964L7.10353 13.1464L6.39647 13.8536L11.6472 19.1036L12.3543 18.3964Z" fill="#4D4D4D"/>
</svg>
