<svg width="24" height="24" viewBox="0 0 24 24" fill="none" xmlns="http://www.w3.org/2000/svg">
<path d="M5.25 11.9993L4.89642 12.3528C4.80266 12.259 4.74999 12.1318 4.75 11.9992C4.75001 11.8666 4.8027 11.7394 4.89647 11.6457L5.25 11.9993ZM18.75 11.4993C19.0261 11.4993 19.25 11.7231 19.25 11.9993C19.25 12.2754 19.0261 12.4993 18.75 12.4993V11.4993ZM10.1465 6.39642C10.3417 6.20117 10.6583 6.2012 10.8536 6.39647C11.0488 6.59175 11.0488 6.90833 10.8535 7.10358L10.1465 6.39642ZM10.8536 16.8965C11.0488 17.0917 11.0488 17.4083 10.8535 17.6036C10.6583 17.7988 10.3417 17.7988 10.1464 17.6035L10.8536 16.8965ZM5.25 11.4993H18.75V12.4993H5.25V11.4993ZM10.8535 7.10358L5.60353 12.3528L4.89647 11.6457L10.1465 6.39642L10.8535 7.10358ZM5.60358 11.6457L10.8536 16.8965L10.1464 17.6035L4.89642 12.3528L5.60358 11.6457Z" fill="#4D4D4D"/>
</svg>
