<svg width="24" height="24" viewBox="0 0 24 24" fill="none" xmlns="http://www.w3.org/2000/svg">
<path d="M0.75 2.25005H4.5L8.25 17.25H20.25L23.25 8.25005H6M10.125 20.25C10.125 21.0785 9.45343 21.75 8.625 21.75C7.79657 21.75 7.125 21.0785 7.125 20.25C7.125 19.4216 7.79657 18.75 8.625 18.75C9.45343 18.75 10.125 19.4216 10.125 20.25ZM19.875 20.25C19.875 21.0785 19.2034 21.75 18.375 21.75C17.5466 21.75 16.875 21.0785 16.875 20.25C16.875 19.4216 17.5466 18.75 18.375 18.75C19.2034 18.75 19.875 19.4216 19.875 20.25Z" stroke="#4D4D4D" stroke-miterlimit="10" stroke-linecap="round" stroke-linejoin="round"/>
</svg>
