<svg width="24" height="24" viewBox="0 0 24 24" fill="none" xmlns="http://www.w3.org/2000/svg">
<path d="M3.5 19.3751C3.22386 19.3751 3 19.5989 3 19.8751C3 20.1512 3.22386 20.3751 3.5 20.3751V19.3751ZM13.5003 12.3751H13.0003H13.5003ZM19.75 12.8751C20.0261 12.8751 20.25 12.6512 20.25 12.3751C20.25 12.0989 20.0261 11.8751 19.75 11.8751V12.8751ZM3.5 11.8751C3.22386 11.8751 3 12.0989 3 12.3751C3 12.6512 3.22386 12.8751 3.5 12.8751L3.5 11.8751ZM6 4.87506L5.5 4.87506L6 4.87506ZM19.75 5.37506C20.0261 5.37506 20.25 5.1512 20.25 4.87506C20.25 4.59892 20.0261 4.37506 19.75 4.37506V5.37506ZM19.125 18.0001V17.5001V18.0001ZM21 19.8751H20.5H21ZM19.125 21.7501V21.2501V21.7501ZM4.125 3.00006V2.50006V3.00006ZM4.125 6.75006L4.125 6.25006L4.125 6.75006ZM2.25 4.87506H1.75H2.25ZM11.625 10.5001V10.0001V10.5001ZM11.625 14.2501V13.7501V14.2501ZM3.5 20.3751L17.25 20.3751L17.25 19.3751L3.5 19.3751V20.3751ZM13.5003 12.8751L19.75 12.8751V11.8751L13.5003 11.8751V12.8751ZM3.5 12.8751L9.75031 12.8751V11.8751L3.5 11.8751L3.5 12.8751ZM6 5.37506L19.75 5.37506V4.37506L6 4.37506V5.37506ZM19.125 18.5001C19.8844 18.5001 20.5 19.1157 20.5 19.8751H21.5C21.5 18.5634 20.4367 17.5001 19.125 17.5001V18.5001ZM20.5 19.8751C20.5 20.6345 19.8844 21.2501 19.125 21.2501V22.2501C20.4367 22.2501 21.5 21.1867 21.5 19.8751H20.5ZM19.125 21.2501C18.3656 21.2501 17.75 20.6345 17.75 19.8751H16.75C16.75 21.1867 17.8133 22.2501 19.125 22.2501V21.2501ZM17.75 19.8751C17.75 19.1157 18.3656 18.5001 19.125 18.5001V17.5001C17.8133 17.5001 16.75 18.5634 16.75 19.8751H17.75ZM4.125 3.50006C4.88439 3.50006 5.5 4.11567 5.5 4.87506L6.5 4.87506C6.5 3.56339 5.43668 2.50006 4.125 2.50006V3.50006ZM5.5 4.87506C5.5 5.63445 4.88439 6.25006 4.125 6.25006L4.125 7.25006C5.43668 7.25006 6.5 6.18674 6.5 4.87506L5.5 4.87506ZM4.125 6.25006C3.36561 6.25006 2.75 5.63445 2.75 4.87506H1.75C1.75 6.18674 2.81332 7.25006 4.125 7.25006L4.125 6.25006ZM2.75 4.87506C2.75 4.11567 3.36561 3.50006 4.125 3.50006V2.50006C2.81332 2.50006 1.75 3.56338 1.75 4.87506H2.75ZM11.625 11.0001C12.3845 11.0001 13.0003 11.6158 13.0003 12.3751H14.0003C14.0003 11.0633 12.9366 10.0001 11.625 10.0001V11.0001ZM13.0003 12.3751C13.0003 13.1343 12.3845 13.7501 11.625 13.7501V14.7501C12.9366 14.7501 14.0003 13.6868 14.0003 12.3751H13.0003ZM11.625 13.7501C10.8657 13.7501 10.2503 13.1346 10.2503 12.3751H9.25031C9.25031 13.6866 10.3132 14.7501 11.625 14.7501V13.7501ZM10.2503 12.3751C10.2503 11.6156 10.8657 11.0001 11.625 11.0001V10.0001C10.3132 10.0001 9.25031 11.0635 9.25031 12.3751H10.2503Z" fill="#4D4D4D"/>
</svg>
