<svg width="24" height="24" viewBox="0 0 24 24" fill="none" xmlns="http://www.w3.org/2000/svg">
<path d="M19.9461 13.7453L19.4521 13.6685C19.4271 13.829 19.4816 13.9916 19.5983 14.1045L19.9461 13.7453ZM19.9461 11.2547L19.5986 10.8952C19.4818 11.0082 19.4271 11.1709 19.4521 11.3315L19.9461 11.2547ZM21.7357 9.52505L22.0832 9.88456L22.0832 9.88455L21.7357 9.52505ZM21.8445 8.74945L22.2776 8.49949L22.2775 8.49944L21.8445 8.74945ZM20.1141 5.7524L19.6811 6.00233L19.6811 6.0024L20.1141 5.7524ZM19.3879 5.45875L19.2502 4.97806L19.2501 4.97809L19.3879 5.45875ZM16.9452 6.15875L16.6371 6.5525C16.7632 6.65121 16.929 6.68352 17.083 6.6394L16.9452 6.15875ZM14.8575 4.97925L14.3724 5.10066C14.4121 5.2591 14.5266 5.38818 14.6792 5.4464L14.8575 4.97925ZM14.2324 2.482L13.7473 2.60328L13.7473 2.60341L14.2324 2.482ZM13.6164 2.00005L13.6174 1.50005H13.6164V2.00005ZM10.1556 2.00005L10.1555 2.50005H10.1556V2.00005ZM9.53817 2.482L9.0531 2.36071L9.05309 2.36076L9.53817 2.482ZM8.89137 5.0699L9.08436 5.53115C9.22992 5.47025 9.33819 5.34421 9.37645 5.19113L8.89137 5.0699ZM6.98282 6.20005L6.84529 6.68076C7.00072 6.72523 7.16806 6.6918 7.29448 6.59103L6.98282 6.20005ZM4.38442 5.45665L4.24678 5.93733L4.24689 5.93736L4.38442 5.45665ZM3.65817 5.7503L3.22512 5.50036L3.22511 5.50038L3.65817 5.7503ZM1.92777 8.74875L2.3605 8.99923L2.36083 8.99866L1.92777 8.74875ZM2.03627 9.52505L2.38379 9.16556L2.38374 9.16552L2.03627 9.52505ZM4.01447 11.4374L4.50989 11.5049C4.53138 11.3472 4.47645 11.1886 4.36199 11.078L4.01447 11.4374ZM4.01447 13.5637L4.36189 13.9233C4.47642 13.8126 4.53138 13.654 4.50989 13.4962L4.01447 13.5637ZM2.03627 15.475L1.68884 15.1155L1.68876 15.1155L2.03627 15.475ZM1.92742 16.2506L1.49438 16.5006L1.49441 16.5007L1.92742 16.2506ZM3.65782 19.2477L4.09087 18.9978L4.09083 18.9977L3.65782 19.2477ZM4.38407 19.5413L4.24691 19.0605L4.24643 19.0607L4.38407 19.5413ZM6.98282 18.8L7.29464 18.4092C7.16831 18.3084 7.00107 18.2749 6.84566 18.3192L6.98282 18.8ZM8.89172 19.9312L9.3768 19.81C9.33855 19.657 9.23032 19.531 9.08482 19.47L8.89172 19.9312ZM9.53852 22.5191L9.05344 22.6404L9.05366 22.6413L9.53852 22.5191ZM10.1556 23V22.5H10.1556L10.1556 23ZM13.6164 23V23.5L13.6174 23.5L13.6164 23ZM14.2324 22.5181L14.7174 22.6394L14.7174 22.6394L14.2324 22.5181ZM14.8561 20.0233L14.6778 19.5562C14.5252 19.6144 14.4106 19.7435 14.371 19.902L14.8561 20.0233ZM16.9438 18.8434L17.0816 18.3628C16.9276 18.3187 16.7617 18.351 16.6356 18.4497L16.9438 18.8434ZM19.3865 19.5434L19.2487 20.0241L19.2488 20.0241L19.3865 19.5434ZM20.1127 19.2498L19.6797 18.9998L19.6797 18.9999L20.1127 19.2498ZM21.8431 16.2527L22.2761 16.5028L22.2762 16.5027L21.8431 16.2527ZM21.7343 15.4771L21.3864 15.8363L21.3868 15.8366L21.7343 15.4771ZM16.0424 12.5001C16.0424 14.7368 14.2292 16.5501 11.9924 16.5501V17.5501C14.7815 17.5501 17.0424 15.2891 17.0424 12.5001H16.0424ZM11.9924 16.5501C9.75567 16.5501 7.94243 14.7368 7.94243 12.5001H6.94243C6.94243 15.2891 9.20339 17.5501 11.9924 17.5501V16.5501ZM7.94243 12.5001C7.94243 10.2633 9.75567 8.45005 11.9924 8.45005V7.45005C9.20339 7.45005 6.94243 9.71102 6.94243 12.5001H7.94243ZM11.9924 8.45005C14.2292 8.45005 16.0424 10.2633 16.0424 12.5001H17.0424C17.0424 9.71102 14.7815 7.45005 11.9924 7.45005V8.45005ZM20.4402 13.8221C20.5764 12.946 20.5764 12.0541 20.4402 11.1779L19.4521 11.3315C19.5724 12.1059 19.5724 12.8942 19.4521 13.6685L20.4402 13.8221ZM20.2936 11.6143L22.0832 9.88456L21.3882 9.16553L19.5986 10.8952L20.2936 11.6143ZM22.0832 9.88455C22.2654 9.70842 22.3835 9.47643 22.4187 9.22547L21.4284 9.08649C21.4242 9.11659 21.41 9.14442 21.3882 9.16554L22.0832 9.88455ZM22.4187 9.22547C22.4539 8.9745 22.4042 8.71897 22.2776 8.49949L21.4115 8.9994C21.4267 9.02573 21.4326 9.05638 21.4284 9.08649L22.4187 9.22547ZM22.2775 8.49944L20.5471 5.50239L19.6811 6.0024L21.4115 8.99945L22.2775 8.49944ZM20.5472 5.50246C20.4205 5.28291 20.224 5.11204 19.989 5.01702L19.6141 5.9441C19.6423 5.9555 19.6659 5.976 19.6811 6.00233L20.5472 5.50246ZM19.989 5.01702C19.754 4.922 19.4939 4.90829 19.2502 4.97806L19.5255 5.93943C19.5547 5.93106 19.5859 5.93271 19.6141 5.9441L19.989 5.01702ZM19.2501 4.97809L16.8075 5.67809L17.083 6.6394L19.5256 5.9394L19.2501 4.97809ZM17.2534 5.765C16.581 5.23877 15.8334 4.81643 15.0357 4.51209L14.6792 5.4464C15.3835 5.71508 16.0435 6.08793 16.6371 6.5525L17.2534 5.765ZM15.3425 4.85783L14.7174 2.36058L13.7473 2.60341L14.3724 5.10066L15.3425 4.85783ZM14.7174 2.36071C14.6561 2.11526 14.5145 1.89731 14.3153 1.74141L13.6991 2.529C13.723 2.5477 13.7399 2.57384 13.7473 2.60328L14.7174 2.36071ZM14.3153 1.74141C14.116 1.5855 13.8704 1.50056 13.6174 1.50005L13.6153 2.50004C13.6457 2.50011 13.6752 2.5103 13.6991 2.529L14.3153 1.74141ZM13.6164 1.50005H10.1556V2.50005H13.6164V1.50005ZM10.1556 1.50005C9.90221 1.5 9.65604 1.58469 9.45626 1.74064L10.0716 2.5289C10.0956 2.5102 10.1251 2.50004 10.1555 2.50005L10.1556 1.50005ZM9.45626 1.74064C9.25648 1.89658 9.11458 2.11484 9.0531 2.36071L10.0232 2.60328C10.0306 2.57379 10.0476 2.54761 10.0716 2.5289L9.45626 1.74064ZM9.05309 2.36076L8.40629 4.94866L9.37645 5.19113L10.0232 2.60323L9.05309 2.36076ZM8.69838 4.60864C7.97043 4.91322 7.2882 5.3172 6.67115 5.80906L7.29448 6.59103C7.83928 6.15675 8.44164 5.80007 9.08436 5.53115L8.69838 4.60864ZM7.12035 5.71933L4.52195 4.97593L4.24689 5.93736L6.84529 6.68076L7.12035 5.71933ZM4.52205 4.97596C4.27835 4.90619 4.01832 4.9199 3.78332 5.01492L4.15817 5.942C4.18636 5.93061 4.21755 5.92896 4.24678 5.93733L4.52205 4.97596ZM3.78332 5.01492C3.54831 5.10994 3.35183 5.28081 3.22512 5.50036L4.09122 6.00023C4.10642 5.9739 4.12998 5.9534 4.15817 5.942L3.78332 5.01492ZM3.22511 5.50038L1.49471 8.49883L2.36083 8.99866L4.09123 6.00021L3.22511 5.50038ZM1.49503 8.49826C1.36795 8.71781 1.31799 8.97356 1.3531 9.2248L2.34348 9.08638C2.33926 9.05624 2.34526 9.02556 2.3605 8.99923L1.49503 8.49826ZM1.3531 9.2248C1.38822 9.47603 1.50639 9.70828 1.68879 9.88457L2.38374 9.16552C2.36186 9.14437 2.34769 9.11651 2.34348 9.08638L1.3531 9.2248ZM1.68874 9.88453L3.66694 11.7969L4.36199 11.078L2.38379 9.16556L1.68874 9.88453ZM3.51904 11.37C3.41686 12.1202 3.41686 12.8809 3.51904 13.6312L4.50989 13.4962C4.41991 12.8355 4.41991 12.1656 4.50989 11.5049L3.51904 11.37ZM3.66704 13.2041L1.68884 15.1155L2.38369 15.8346L4.36189 13.9233L3.66704 13.2041ZM1.68876 15.1155C1.50655 15.2917 1.38845 15.5237 1.35323 15.7746L2.34352 15.9136C2.34775 15.8835 2.36191 15.8557 2.38377 15.8345L1.68876 15.1155ZM1.35323 15.7746C1.31801 16.0256 1.36769 16.2811 1.49438 16.5006L2.36045 16.0007C2.34526 15.9744 2.3393 15.9437 2.34352 15.9136L1.35323 15.7746ZM1.49441 16.5007L3.22481 19.4977L4.09083 18.9977L2.36043 16.0006L1.49441 16.5007ZM3.22477 19.4976C3.35148 19.7172 3.54796 19.8881 3.78297 19.9831L4.15782 19.056C4.12964 19.0446 4.10607 19.0241 4.09087 18.9978L3.22477 19.4976ZM3.78297 19.9831C4.01798 20.0781 4.27801 20.0918 4.5217 20.022L4.24643 19.0607C4.2172 19.069 4.18601 19.0674 4.15782 19.056L3.78297 19.9831ZM4.52122 20.0222L7.11997 19.2809L6.84566 18.3192L4.24691 19.0605L4.52122 20.0222ZM6.67099 19.1909C7.28808 19.6832 7.97045 20.0876 8.69861 20.3925L9.08482 19.47C8.44193 19.2009 7.83946 18.8439 7.29464 18.4092L6.67099 19.1909ZM8.40664 20.0525L9.05344 22.6404L10.0236 22.3979L9.3768 19.81L8.40664 20.0525ZM9.05366 22.6413C9.11547 22.8867 9.25743 23.1044 9.45705 23.26L10.0718 22.4713C10.0478 22.4526 10.0308 22.4265 10.0234 22.397L9.05366 22.6413ZM9.45705 23.26C9.65666 23.4156 9.9025 23.5001 10.1556 23.5L10.1556 22.5C10.1252 22.5 10.0957 22.4899 10.0718 22.4713L9.45705 23.26ZM10.1556 23.5H13.6164V22.5H10.1556V23.5ZM13.6174 23.5C13.8704 23.4995 14.116 23.4146 14.3153 23.2587L13.6991 22.4711C13.6752 22.4898 13.6457 22.5 13.6153 22.5L13.6174 23.5ZM14.3153 23.2587C14.5145 23.1028 14.6561 22.8848 14.7174 22.6394L13.7473 22.3968C13.7399 22.4263 13.723 22.4524 13.6991 22.4711L14.3153 23.2587ZM14.7174 22.6394L15.3411 20.1446L14.371 19.902L13.7473 22.3968L14.7174 22.6394ZM15.0343 20.4904C15.8321 20.186 16.5797 19.7635 17.252 19.2372L16.6356 18.4497C16.042 18.9144 15.3821 19.2874 14.6778 19.5562L15.0343 20.4904ZM16.8061 19.3241L19.2487 20.0241L19.5242 19.0628L17.0816 18.3628L16.8061 19.3241ZM19.2488 20.0241C19.4925 20.0939 19.7526 20.0802 19.9876 19.9852L19.6127 19.0581C19.5845 19.0695 19.5533 19.0711 19.5241 19.0628L19.2488 20.0241ZM19.9876 19.9852C20.2226 19.8902 20.4191 19.7193 20.5458 19.4997L19.6797 18.9999C19.6645 19.0262 19.6409 19.0467 19.6127 19.0581L19.9876 19.9852ZM20.5457 19.4998L22.2761 16.5028L21.4101 16.0027L19.6797 18.9998L20.5457 19.4998ZM22.2762 16.5027C22.4028 16.2832 22.4525 16.0277 22.4173 15.7767L21.427 15.9157C21.4312 15.9458 21.4253 15.9765 21.4101 16.0028L22.2762 16.5027ZM22.4173 15.7767C22.3821 15.5258 22.264 15.2938 22.0818 15.1176L21.3868 15.8366C21.4086 15.8578 21.4228 15.8856 21.427 15.9157L22.4173 15.7767ZM22.0821 15.118L20.294 13.3862L19.5983 14.1045L21.3864 15.8363L22.0821 15.118Z" fill="#4D4D4D"/>
</svg>
