<svg width="24" height="24" viewBox="0 0 24 24" fill="none" xmlns="http://www.w3.org/2000/svg">
<g clip-path="url(#clip0_1638_23251)">
<path d="M12 1.50002L0.93475 12.8387C0.921282 12.8517 0.912005 12.8684 0.908113 12.8867C0.90422 12.905 0.905889 12.9241 0.912905 12.9414C0.919922 12.9588 0.931965 12.9736 0.947485 12.984C0.963006 12.9945 0.981295 13 1 13L4 13.0118V23H9.37505V17H14.6251V23H20V13.0118H23C23.0187 13.0118 23.037 13.0062 23.0525 12.9958C23.068 12.9854 23.0801 12.9705 23.0871 12.9532C23.0941 12.9358 23.0958 12.9168 23.0919 12.8985C23.088 12.8802 23.0787 12.8635 23.0653 12.8505L12 1.50002Z" stroke="#4D4D4D" stroke-miterlimit="10" stroke-linecap="round" stroke-linejoin="round"/>
</g>
<defs>
<clipPath id="clip0_1638_23251">
<rect width="24" height="24" fill="white"/>
</clipPath>
</defs>
</svg>
