<svg width="24" height="24" viewBox="0 0 24 24" fill="none" xmlns="http://www.w3.org/2000/svg">
<path d="M12 2L12.4415 1.76529C12.3547 1.60203 12.1849 1.5 12 1.5C11.8151 1.5 11.6453 1.60203 11.5585 1.76529L12 2ZM1.5 21.75L1.05851 21.5153C0.976123 21.6703 0.981022 21.8571 1.07142 22.0075C1.16182 22.158 1.32449 22.25 1.5 22.25V21.75ZM22.5 21.75V22.25C22.6755 22.25 22.8382 22.158 22.9286 22.0075C23.019 21.8571 23.0239 21.6703 22.9415 21.5153L22.5 21.75ZM11.5 14.375C11.5 14.6511 11.7239 14.875 12 14.875C12.2761 14.875 12.5 14.6511 12.5 14.375H11.5ZM12.5 9.375C12.5 9.09886 12.2761 8.875 12 8.875C11.7239 8.875 11.5 9.09886 11.5 9.375H12.5ZM11.5585 1.76529L1.05851 21.5153L1.94149 21.9847L12.4415 2.23471L11.5585 1.76529ZM1.5 22.25H22.5V21.25H1.5V22.25ZM22.9415 21.5153L12.4415 1.76529L11.5585 2.23471L22.0585 21.9847L22.9415 21.5153ZM12.5 14.375V9.375H11.5V14.375H12.5ZM12.25 18C12.25 18.1381 12.1381 18.25 12 18.25V19.25C12.6904 19.25 13.25 18.6904 13.25 18H12.25ZM12 18.25C11.8619 18.25 11.75 18.1381 11.75 18H10.75C10.75 18.6904 11.3096 19.25 12 19.25V18.25ZM11.75 18C11.75 17.8619 11.8619 17.75 12 17.75V16.75C11.3096 16.75 10.75 17.3096 10.75 18H11.75ZM12 17.75C12.1381 17.75 12.25 17.8619 12.25 18H13.25C13.25 17.3096 12.6904 16.75 12 16.75V17.75Z" fill="#4D4D4D"/>
</svg>
