<svg width="24" height="24" viewBox="0 0 24 24" fill="none" xmlns="http://www.w3.org/2000/svg">
<path d="M10.5 10.25C10.2239 10.25 10 10.4739 10 10.75C10 11.0261 10.2239 11.25 10.5 11.25V10.25ZM12 10.75H12.5C12.5 10.4739 12.2761 10.25 12 10.25V10.75ZM11.5 18C11.5 18.2761 11.7239 18.5 12 18.5C12.2761 18.5 12.5 18.2761 12.5 18H11.5ZM10.5 17.503C10.2239 17.503 10 17.7269 10 18.003C10 18.2791 10.2239 18.503 10.5 18.503V17.503ZM13.5 18.503C13.7761 18.503 14 18.2791 14 18.003C14 17.7269 13.7761 17.503 13.5 17.503V18.503ZM21.5 12C21.5 17.2467 17.2467 21.5 12 21.5V22.5C17.799 22.5 22.5 17.799 22.5 12H21.5ZM12 21.5C6.75329 21.5 2.5 17.2467 2.5 12H1.5C1.5 17.799 6.20101 22.5 12 22.5V21.5ZM2.5 12C2.5 6.7533 6.7533 2.5 12 2.5V1.5C6.20101 1.5 1.5 6.20101 1.5 12H2.5ZM12 2.5C17.2467 2.5 21.5 6.75329 21.5 12H22.5C22.5 6.20101 17.799 1.5 12 1.5V2.5ZM10.5 11.25H12V10.25H10.5V11.25ZM11.5 10.75V18H12.5V10.75H11.5ZM10.5 18.503H13.5V17.503H10.5V18.503ZM11.875 7.125C11.875 7.26307 11.7631 7.375 11.625 7.375V8.375C12.3154 8.375 12.875 7.81536 12.875 7.125H11.875ZM11.625 7.375C11.4869 7.375 11.375 7.26307 11.375 7.125H10.375C10.375 7.81536 10.9346 8.375 11.625 8.375V7.375ZM11.375 7.125C11.375 6.98693 11.4869 6.875 11.625 6.875V5.875C10.9346 5.875 10.375 6.43464 10.375 7.125H11.375ZM11.625 6.875C11.7631 6.875 11.875 6.98693 11.875 7.125H12.875C12.875 6.43464 12.3154 5.875 11.625 5.875V6.875Z" fill="#4D4D4D"/>
</svg>
