<svg width="24" height="24" viewBox="0 0 24 24" fill="none" xmlns="http://www.w3.org/2000/svg">
<g clip-path="url(#clip0_1638_23490)">
<path d="M6.75002 20.25H7.50002C9.00002 20.25 12 21.75 13.5 21.75H19.5C19.8978 21.75 20.2794 21.592 20.5607 21.3107C20.842 21.0294 21 20.6479 21 20.25C21 19.8522 20.842 19.4707 20.5607 19.1894C20.2794 18.9081 19.8978 18.75 19.5 18.75H20.25C20.6478 18.75 21.0294 18.592 21.3107 18.3107C21.592 18.0294 21.75 17.6479 21.75 17.25C21.75 16.8522 21.592 16.4707 21.3107 16.1894C21.0294 15.9081 20.6478 15.75 20.25 15.75H21C21.3978 15.75 21.7794 15.592 22.0607 15.3107C22.342 15.0294 22.5 14.6479 22.5 14.25C22.5 13.8522 22.342 13.4707 22.0607 13.1894C21.7794 12.9081 21.3978 12.75 21 12.75H21.75C22.1478 12.75 22.5294 12.592 22.8107 12.3107C23.092 12.0294 23.25 11.6479 23.25 11.25C23.25 10.8522 23.092 10.4707 22.8107 10.1894C22.5294 9.90807 22.1478 9.75003 21.75 9.75003H14.25C14.7512 7.53509 15.0028 5.27098 15 3.00003C15 2.60221 14.842 2.22067 14.5607 1.93937C14.2794 1.65807 13.8978 1.50003 13.5 1.50003C13.1022 1.50003 12.7207 1.65807 12.4394 1.93937C12.1581 2.22067 12 2.60221 12 3.00003C12 3.00003 11.325 10.4625 6.75002 11.175M0.750015 22.5L6.75002 21.75V9.75003H0.750015V22.5ZM4.12502 18.75C4.12502 18.9571 3.95712 19.125 3.75002 19.125C3.54291 19.125 3.37502 18.9571 3.37502 18.75C3.37502 18.5429 3.54291 18.375 3.75002 18.375C3.95712 18.375 4.12502 18.5429 4.12502 18.75Z" stroke="#4D4D4D" stroke-miterlimit="10" stroke-linecap="round" stroke-linejoin="round"/>
</g>
<defs>
<clipPath id="clip0_1638_23490">
<rect width="24" height="24" fill="white"/>
</clipPath>
</defs>
</svg>
