<svg width="24" height="24" viewBox="0 0 24 24" fill="none" xmlns="http://www.w3.org/2000/svg">
<path d="M1.15425 8.37414H5.72475V22.1906H1.15425V8.37414Z" stroke="#4D4D4D" stroke-miterlimit="10" stroke-linecap="round" stroke-linejoin="round"/>
<path d="M17.5196 7.91702C15.5156 7.91702 14.3205 8.65539 13.0549 10.2724V8.37414H8.48438V22.1906H13.0897V14.7023C13.0897 13.1201 13.8983 11.5733 15.7264 11.5733C17.5545 11.5733 18.6442 13.1201 18.6442 14.667V22.1906H23.25V14.3509C23.25 8.90139 19.5585 7.91702 17.5196 7.91702Z" stroke="#4D4D4D" stroke-miterlimit="10" stroke-linecap="round" stroke-linejoin="round"/>
<path d="M3.45712 1.65939C1.9455 1.65939 0.75 2.74914 0.75 4.08527C0.75 5.42139 1.9455 6.51114 3.45712 6.51114C4.96875 6.51114 6.16425 5.42139 6.16425 4.08527C6.16425 2.74914 4.96875 1.65939 3.45712 1.65939Z" stroke="#4D4D4D" stroke-miterlimit="10" stroke-linecap="round" stroke-linejoin="round"/>
</svg>
