<svg width="24" height="24" viewBox="0 0 24 24" fill="none" xmlns="http://www.w3.org/2000/svg">
<path d="M2 4C2 3.44772 2.44772 3 3 3H21C21.5523 3 22 3.44772 22 4V6C22 6.55228 21.5523 7 21 7H3C2.44772 7 2 6.55228 2 6V4ZM2 11C2 10.4477 2.44772 10 3 10H21C21.5523 10 22 10.4477 22 11V13C22 13.5523 21.5523 14 21 14H3C2.44772 14 2 13.5523 2 13V11Z" stroke="#4D4D4D" stroke-miterlimit="10" stroke-linecap="round" stroke-linejoin="round"/>
<path d="M2 18C2 17.4477 2.44772 17 3 17H21C21.5523 17 22 17.4477 22 18V20C22 20.5523 21.5523 21 21 21H3C2.44772 21 2 20.5523 2 20V18Z" stroke="#4D4D4D" stroke-miterlimit="10" stroke-linecap="round" stroke-linejoin="round"/>
</svg>
