<svg width="24" height="24" viewBox="0 0 24 24" fill="none" xmlns="http://www.w3.org/2000/svg">
<path d="M13.5 18.0001C13.5 17.1716 12.8284 16.5001 12 16.5001C11.1716 16.5001 10.5 17.1716 10.5 18.0001C10.5 18.8285 11.1716 19.5001 12 19.5001C12.8284 19.5001 13.5 18.8285 13.5 18.0001Z" stroke="#4D4D4D" stroke-miterlimit="10" stroke-linecap="round" stroke-linejoin="round"/>
<path d="M13.5 6.00006C13.5 5.17163 12.8284 4.50006 12 4.50006C11.1716 4.50006 10.5 5.17163 10.5 6.00006C10.5 6.82849 11.1716 7.50006 12 7.50006C12.8284 7.50006 13.5 6.82849 13.5 6.00006Z" stroke="#4D4D4D" stroke-miterlimit="10" stroke-linecap="round" stroke-linejoin="round"/>
<path d="M13.5 12.0001C13.5 11.1716 12.8284 10.5001 12 10.5001C11.1716 10.5001 10.5 11.1716 10.5 12.0001C10.5 12.8285 11.1716 13.5001 12 13.5001C12.8284 13.5001 13.5 12.8285 13.5 12.0001Z" stroke="#4D4D4D" stroke-miterlimit="10" stroke-linecap="round" stroke-linejoin="round"/>
</svg>
