<svg width="24" height="24" viewBox="0 0 24 24" fill="none" xmlns="http://www.w3.org/2000/svg">
<g clip-path="url(#clip0_1639_22508)">
<path d="M14.25 15.0001V9.00006C14.25 8.40332 14.0129 7.83103 13.591 7.40907C13.169 6.98711 12.5967 6.75006 12 6.75006C11.4033 6.75006 10.831 6.98711 10.409 7.40907C9.98705 7.83103 9.75 8.40332 9.75 9.00006V19.5001C9.75 20.4946 10.1451 21.4485 10.8483 22.1517C11.5516 22.855 12.5054 23.2501 13.5 23.2501C13.9925 23.2501 14.4801 23.1531 14.9351 22.9646C15.39 22.7762 15.8034 22.4999 16.1517 22.1517C16.4999 21.8035 16.7761 21.3901 16.9645 20.9351C17.153 20.4802 17.25 19.9925 17.25 19.5001V6.00006C17.25 4.60767 16.6969 3.27232 15.7123 2.28775C14.7277 1.30318 13.3924 0.750061 12 0.750061C10.6076 0.750061 9.27226 1.30318 8.28769 2.28775C7.30312 3.27232 6.75 4.60767 6.75 6.00006V15.0001" stroke="#4D4D4D" stroke-miterlimit="10" stroke-linecap="round" stroke-linejoin="round"/>
</g>
<defs>
<clipPath id="clip0_1639_22508">
<rect width="24" height="24" fill="white"/>
</clipPath>
</defs>
</svg>
