<svg width="24" height="24" viewBox="0 0 24 24" fill="none" xmlns="http://www.w3.org/2000/svg">
<g clip-path="url(#clip0_1638_23476)">
<path d="M21.8876 17.4954L18.0698 15C17.6871 14.7575 17.2255 14.6718 16.7812 14.7607C16.3368 14.8495 15.9438 15.1061 15.6837 15.4771C14.8027 16.5413 13.7381 18.3028 9.73682 14.3027C5.73551 10.3027 7.46085 9.20181 8.52542 8.32108C8.89653 8.06111 9.15318 7.6682 9.24205 7.22399C9.33092 6.77977 9.24518 6.31841 9.00264 5.93575L6.5064 2.11923C6.17602 1.64216 5.73551 0.871516 4.70764 1.01831C3.67978 1.16509 1 2.66969 1 5.97245C1 9.27521 3.60636 13.3119 7.16717 16.8716C10.728 20.4312 14.766 23 18.0331 23C21.3003 23 22.8788 20.0642 22.9889 19.3303C23.099 18.5963 22.3648 17.8257 21.8876 17.4954Z" stroke="#4D4D4D" stroke-miterlimit="10" stroke-linecap="round" stroke-linejoin="round"/>
</g>
<defs>
<clipPath id="clip0_1638_23476">
<rect width="24" height="24" fill="white"/>
</clipPath>
</defs>
</svg>
