<svg width="24" height="24" viewBox="0 0 24 24" fill="none" xmlns="http://www.w3.org/2000/svg">
<g clip-path="url(#clip0_1638_23248)">
<path d="M12 0.750031C10.0109 0.750031 8.10327 1.54021 6.69675 2.94673C5.29022 4.35325 4.50005 6.26091 4.50005 8.25003C4.50005 15 12 22.875 12 22.875C12 22.875 19.5001 15 19.5001 8.25003C19.5001 6.26091 18.7099 4.35325 17.3034 2.94673C15.8968 1.54021 13.9892 0.750031 12 0.750031Z" stroke="#4D4D4D" stroke-miterlimit="10" stroke-linecap="round" stroke-linejoin="round"/>
<path d="M12.0001 11.25C13.6569 11.25 15.0001 9.9069 15.0001 8.25004C15.0001 6.59319 13.6569 5.25004 12.0001 5.25004C10.3432 5.25004 9.00005 6.59319 9.00005 8.25004C9.00005 9.9069 10.3432 11.25 12.0001 11.25Z" stroke="#4D4D4D" stroke-miterlimit="10" stroke-linecap="round" stroke-linejoin="round"/>
</g>
<defs>
<clipPath id="clip0_1638_23248">
<rect width="24" height="24" fill="white"/>
</clipPath>
</defs>
</svg>
