<svg width="24" height="24" viewBox="0 0 24 24" fill="none" xmlns="http://www.w3.org/2000/svg">
<g clip-path="url(#clip0_1638_23265)">
<path d="M4.7501 7.50003C4.7501 7.77618 4.97396 8.00003 5.2501 8.00003C5.52625 8.00003 5.7501 7.77618 5.7501 7.50003H4.7501ZM5.2501 1.50003V1.00003C4.97396 1.00003 4.7501 1.22389 4.7501 1.50003H5.2501ZM18.7501 1.50003H19.2501C19.2501 1.22389 19.0263 1.00003 18.7501 1.00003V1.50003ZM18.2501 7.50003C18.2501 7.77618 18.474 8.00003 18.7501 8.00003C19.0263 8.00003 19.2501 7.77618 19.2501 7.50003H18.2501ZM5.25009 17.75C5.52624 17.75 5.75009 17.5262 5.75009 17.25C5.75009 16.9739 5.52624 16.75 5.25009 16.75V17.75ZM0.750092 17.25H0.250092C0.250092 17.5262 0.473949 17.75 0.750092 17.75L0.750092 17.25ZM0.750092 7.50003V7.00003C0.473949 7.00003 0.250092 7.22389 0.250092 7.50003H0.750092ZM23.2501 7.50003H23.7501C23.7501 7.22389 23.5262 7.00003 23.2501 7.00003V7.50003ZM23.2501 17.25V17.75C23.5262 17.75 23.7501 17.5262 23.7501 17.25H23.2501ZM18.7501 16.75C18.474 16.75 18.2501 16.9739 18.2501 17.25C18.2501 17.5262 18.474 17.75 18.7501 17.75V16.75ZM5.2501 13.5V13C4.97396 13 4.7501 13.2239 4.7501 13.5H5.2501ZM18.7501 13.5H19.2501C19.2501 13.2239 19.0263 13 18.7501 13V13.5ZM18.7501 22.5V23C19.0263 23 19.2501 22.7762 19.2501 22.5H18.7501ZM5.2501 22.5H4.7501C4.7501 22.7762 4.97396 23 5.2501 23V22.5ZM18.7501 10C18.474 10 18.2501 10.2239 18.2501 10.5C18.2501 10.7762 18.474 11 18.7501 11V10ZM20.2501 11C20.5262 11 20.7501 10.7762 20.7501 10.5C20.7501 10.2239 20.5262 10 20.2501 10V11ZM8.2501 16C7.97395 16 7.7501 16.2239 7.7501 16.5C7.7501 16.7762 7.97395 17 8.2501 17V16ZM15.7501 17C16.0262 17 16.2501 16.7762 16.2501 16.5C16.2501 16.2239 16.0262 16 15.7501 16V17ZM8.2501 19C7.97395 19 7.7501 19.2239 7.7501 19.5C7.7501 19.7762 7.97395 20 8.2501 20V19ZM15.7501 20C16.0262 20 16.2501 19.7762 16.2501 19.5C16.2501 19.2239 16.0262 19 15.7501 19V20ZM5.7501 7.50003V1.50003H4.7501V7.50003H5.7501ZM5.2501 2.00003H18.7501V1.00003H5.2501V2.00003ZM18.2501 1.50003V7.50003H19.2501V1.50003H18.2501ZM5.25009 16.75H0.750092V17.75H5.25009V16.75ZM1.25009 17.25V7.50003H0.250092V17.25H1.25009ZM0.750092 8.00003H23.2501V7.00003H0.750092V8.00003ZM22.7501 7.50003V17.25H23.7501V7.50003H22.7501ZM23.2501 16.75H18.7501V17.75H23.2501V16.75ZM5.2501 14H18.7501V13H5.2501V14ZM18.2501 13.5V22.5H19.2501V13.5H18.2501ZM18.7501 22H5.2501V23H18.7501V22ZM5.7501 22.5V13.5H4.7501V22.5H5.7501ZM18.7501 11H20.2501V10H18.7501V11ZM8.2501 17H15.7501V16H8.2501V17ZM8.2501 20H15.7501V19H8.2501V20ZM4.00011 10.5C4.00011 10.6381 3.88818 10.75 3.75011 10.75V11.75C4.44046 11.75 5.00011 11.1904 5.00011 10.5H4.00011ZM3.75011 10.75C3.61203 10.75 3.5001 10.6381 3.5001 10.5H2.5001C2.5001 11.1904 3.05975 11.75 3.75011 11.75V10.75ZM3.5001 10.5C3.5001 10.362 3.61203 10.25 3.75011 10.25V9.25003C3.05975 9.25003 2.5001 9.80967 2.5001 10.5H3.5001ZM3.75011 10.25C3.88818 10.25 4.00011 10.362 4.00011 10.5H5.00011C5.00011 9.80967 4.44046 9.25003 3.75011 9.25003V10.25Z" fill="#4D4D4D"/>
</g>
<defs>
<clipPath id="clip0_1638_23265">
<rect width="24" height="24" fill="white"/>
</clipPath>
</defs>
</svg>
