<svg width="24" height="24" viewBox="0 0 24 24" fill="none" xmlns="http://www.w3.org/2000/svg">
<g clip-path="url(#clip0_1639_22467)">
<path d="M3.81302 13.1051C3.55046 10.8152 4.10715 8.50625 5.38443 6.58757C6.66171 4.66889 8.57707 3.26441 10.791 2.62308C13.0049 1.98175 15.3744 2.145 17.4795 3.08389C19.5845 4.02278 21.2892 5.67666 22.2913 7.75239C23.2934 9.82811 23.5281 12.1916 22.954 14.4239C22.3799 16.6562 21.0339 18.6131 19.1547 19.9478C17.2755 21.2825 14.9845 21.9087 12.6876 21.7155C10.3908 21.5223 8.23656 20.522 6.60677 18.8922M3.81302 13.1051L0.750015 8.62502M3.81302 13.1051L7.86977 9.37502" stroke="#4D4D4D" stroke-miterlimit="10" stroke-linecap="round" stroke-linejoin="round"/>
</g>
<defs>
<clipPath id="clip0_1639_22467">
<rect width="24" height="24" fill="white"/>
</clipPath>
</defs>
</svg>
