<svg width="24" height="24" viewBox="0 0 24 24" fill="none" xmlns="http://www.w3.org/2000/svg">
<g clip-path="url(#clip0_1639_22462)">
<path d="M3.81227 13.1052C3.77083 12.7362 3.75004 12.3653 3.75002 11.994C3.7512 10.0659 4.32404 8.18145 5.3961 6.57886C6.46817 4.97627 7.99132 3.72752 9.77301 2.99049C11.5547 2.25345 13.5149 2.06123 15.4058 2.43811C17.2967 2.81499 19.0335 3.74406 20.3964 5.10787C21.7594 6.47167 22.6874 8.20896 23.0631 10.1001C23.4388 11.9913 23.2454 13.9514 22.5073 15.7326C21.7691 17.5138 20.5195 19.0362 18.9162 20.1073C17.313 21.1784 15.4281 21.75 13.5 21.75M3.81227 13.1052L0.750015 8.61228M3.81227 13.1052L7.87502 9.36228M13.122 6.37503V13.125H17.622" stroke="#4D4D4D" stroke-miterlimit="10" stroke-linecap="round" stroke-linejoin="round"/>
</g>
<defs>
<clipPath id="clip0_1639_22462">
<rect width="24" height="24" fill="white"/>
</clipPath>
</defs>
</svg>
