<svg width="24" height="24" viewBox="0 0 24 24" fill="none" xmlns="http://www.w3.org/2000/svg">
<path d="M19.25 7.75C19.5261 7.75 19.75 7.52614 19.75 7.25C19.75 6.97386 19.5261 6.75 19.25 6.75C18.9739 6.75 18.75 6.97386 18.75 7.25C18.75 7.52614 18.9739 7.75 19.25 7.75Z" stroke="#4D4D4D" stroke-miterlimit="10" stroke-linecap="round" stroke-linejoin="round"/>
<path d="M7.25 19.75C7.52614 19.75 7.75 19.5261 7.75 19.25C7.75 18.9739 7.52614 18.75 7.25 18.75C6.97386 18.75 6.75 18.9739 6.75 19.25C6.75 19.5261 6.97386 19.75 7.25 19.75Z" stroke="#4D4D4D" stroke-miterlimit="10" stroke-linecap="round" stroke-linejoin="round"/>
<path d="M19.25 19.75C19.5261 19.75 19.75 19.5261 19.75 19.25C19.75 18.9739 19.5261 18.75 19.25 18.75C18.9739 18.75 18.75 18.9739 18.75 19.25C18.75 19.5261 18.9739 19.75 19.25 19.75Z" stroke="#4D4D4D" stroke-miterlimit="10" stroke-linecap="round" stroke-linejoin="round"/>
<path d="M13.25 19.75C13.5261 19.75 13.75 19.5261 13.75 19.25C13.75 18.9739 13.5261 18.75 13.25 18.75C12.9739 18.75 12.75 18.9739 12.75 19.25C12.75 19.5261 12.9739 19.75 13.25 19.75Z" stroke="#4D4D4D" stroke-miterlimit="10" stroke-linecap="round" stroke-linejoin="round"/>
<path d="M19.25 13.75C19.5261 13.75 19.75 13.5261 19.75 13.25C19.75 12.9739 19.5261 12.75 19.25 12.75C18.9739 12.75 18.75 12.9739 18.75 13.25C18.75 13.5261 18.9739 13.75 19.25 13.75Z" stroke="#4D4D4D" stroke-miterlimit="10" stroke-linecap="round" stroke-linejoin="round"/>
<path d="M13.25 13.75C13.5261 13.75 13.75 13.5261 13.75 13.25C13.75 12.9739 13.5261 12.75 13.25 12.75C12.9739 12.75 12.75 12.9739 12.75 13.25C12.75 13.5261 12.9739 13.75 13.25 13.75Z" stroke="#4D4D4D" stroke-miterlimit="10" stroke-linecap="round" stroke-linejoin="round"/>
</svg>
