<svg width="24" height="24" viewBox="0 0 24 24" fill="none" xmlns="http://www.w3.org/2000/svg">
<g clip-path="url(#clip0_1639_22491)">
<path d="M3.77364 17.184C3.17337 17.1822 2.58605 17.3585 2.08605 17.6906C1.58604 18.0228 1.19584 18.4958 0.964837 19.0499C0.733838 19.6039 0.672435 20.214 0.788403 20.803C0.904371 21.3919 1.19249 21.9333 1.61629 22.3584C2.04009 22.7835 2.5805 23.0733 3.1691 23.1911C3.7577 23.3089 4.36801 23.2493 4.92277 23.0201C5.47752 22.7908 5.95177 22.402 6.28545 21.9031C6.61914 21.4041 6.79726 20.8173 6.79726 20.217C6.7979 19.8194 6.7202 19.4254 6.56859 19.0578C6.41698 18.6901 6.19444 18.3559 5.91366 18.0743C5.63289 17.7926 5.29938 17.5691 4.9322 17.4163C4.56501 17.2636 4.17133 17.1846 3.77364 17.184Z" stroke="#4D4D4D" stroke-miterlimit="10" stroke-linecap="round" stroke-linejoin="round"/>
<path d="M0.996014 8.33217H0.820139V12.5292H0.996014C3.77316 12.5324 6.43566 13.6369 8.39965 15.6004C10.3636 17.5639 11.4688 20.2261 11.4728 23.0033V23.25H15.6563V23.0033C15.6575 19.1138 14.1136 15.3831 11.3644 12.6318C8.61508 9.88045 4.88552 8.33386 0.996014 8.33217Z" stroke="#4D4D4D" stroke-miterlimit="10" stroke-linecap="round" stroke-linejoin="round"/>
<path d="M0.996014 0.750046H0.820139V4.94667H0.996014C5.78009 4.956 10.3652 6.86207 13.7461 10.2469C17.127 13.6318 19.0276 18.2192 19.0313 23.0033V23.25H23.25V23.0033C23.2435 17.1032 20.8967 11.4467 16.7247 7.27484C12.5526 3.10295 6.89606 0.756398 0.996014 0.750046Z" stroke="#4D4D4D" stroke-miterlimit="10" stroke-linecap="round" stroke-linejoin="round"/>
</g>
<defs>
<clipPath id="clip0_1639_22491">
<rect width="24" height="24" fill="white"/>
</clipPath>
</defs>
</svg>
