<svg width="26" height="25" viewBox="0 0 26 25" fill="none" xmlns="http://www.w3.org/2000/svg">
<g clip-path="url(#clip0_1_318)">
<path d="M12.2421 14.906L4.99237 13.6963C3.93009 13.5191 2.92527 14.2366 2.74803 15.2988L2.15555 18.8497C1.97831 19.912 2.69577 20.9168 3.75804 21.0941L11.0078 22.3037C12.0701 22.481 13.0749 21.7635 13.2522 20.7012L13.8446 17.1503C14.0219 16.088 13.3044 15.0832 12.2421 14.906Z" stroke="#4D4D4D" stroke-miterlimit="10" stroke-linecap="round" stroke-linejoin="round"/>
<path d="M6.82912 15.9037L6.21196 19.6026L10.2194 18.3703L6.82912 15.9037Z" stroke="#4D4D4D" stroke-miterlimit="10" stroke-linecap="round" stroke-linejoin="round"/>
</g>
<g clip-path="url(#clip1_1_318)">
<path d="M19.6689 8.69543L21.0935 8.47577L20.7667 6.35638L19.0815 6.61621C17.0624 7.0165 16.8223 8.22731 16.9723 9.43145L17.1357 10.4912L15.7458 10.7055L16.0646 12.7729L17.4544 12.5586L18.3116 18.1179L20.3963 17.7964L19.5392 12.2371L21.259 11.9719L21.2703 9.85373L19.2204 10.1698L19.1213 9.52696C19.1016 9.43634 19.1002 9.34269 19.1172 9.25151C19.1341 9.16034 19.1692 9.07348 19.2202 8.99602C19.2712 8.91857 19.3371 8.85208 19.4142 8.80046C19.4912 8.74884 19.5778 8.71313 19.6689 8.69543V8.69543Z" stroke="#4D4D4D" stroke-miterlimit="10" stroke-linecap="round" stroke-linejoin="round"/>
</g>
<g clip-path="url(#clip2_1_318)">
<path d="M15.2025 2.60739C14.8188 2.85497 14.3952 3.0481 13.9382 3.17713C14.3686 2.81794 14.6622 2.30918 14.7496 1.74476C14.3465 2.0784 13.8842 2.34745 13.3762 2.53257C12.8862 2.15205 12.2446 1.96643 11.5827 2.07047C10.3123 2.27016 9.44394 3.46247 9.64379 4.73386C9.67206 4.91365 9.72029 5.08525 9.78537 5.24812C7.85722 5.45251 6.0185 4.80265 4.66464 3.58916C4.52064 3.96103 4.46915 4.37403 4.5353 4.79487C4.66077 5.59307 5.17807 6.23401 5.85983 6.54947C5.48052 6.59644 5.10965 6.54896 4.77236 6.42533L4.77702 6.45497C4.95226 7.56978 5.89122 8.37525 6.97752 8.42112C6.79213 8.50391 6.59347 8.56348 6.38404 8.5964C6.23586 8.61969 6.08897 8.62861 5.9445 8.62399C6.38104 9.49173 7.33527 10.024 8.34519 9.88348C7.65442 10.6247 6.71995 11.1487 5.64218 11.3181C5.45646 11.3473 5.27151 11.3652 5.08788 11.3723C6.20909 11.8657 7.47803 12.056 8.77708 11.8518C13.0101 11.1864 14.7731 7.3167 14.2951 4.27603C14.2796 4.17724 14.2614 4.07786 14.2415 3.97977C14.6399 3.58411 14.9665 3.11824 15.2018 2.60902L15.2025 2.60739Z" stroke="#4D4D4D" stroke-miterlimit="10" stroke-linecap="round" stroke-linejoin="round"/>
</g>
<defs>
<clipPath id="clip0_1_318">
<rect width="12" height="12" fill="white" transform="translate(3.06935 11.0944) rotate(9.47266)"/>
</clipPath>
<clipPath id="clip1_1_318">
<rect width="12" height="12" fill="white" transform="translate(12 7.32866) rotate(-8.76523)"/>
</clipPath>
<clipPath id="clip2_1_318">
<rect width="12" height="12" fill="white" transform="translate(3.1411 2.00452) rotate(-8.93325)"/>
</clipPath>
</defs>
</svg>
