<svg width="24" height="24" viewBox="0 0 24 24" fill="none" xmlns="http://www.w3.org/2000/svg">
<g clip-path="url(#clip0_1638_23131)">
<path d="M23.643 4.93703C22.808 5.30703 21.911 5.55703 20.968 5.67003C21.93 5.09403 22.668 4.18003 23.016 3.09203C22.116 3.62603 21.119 4.01403 20.058 4.22203C19.208 3.31803 17.998 2.75203 16.658 2.75203C14.086 2.75203 12 4.83803 12 7.41203C12 7.77603 12.042 8.13003 12.12 8.47203C8.24701 8.27703 4.81601 6.42203 2.51801 3.60403C2.11801 4.29403 1.88801 5.09403 1.88801 5.94603C1.88801 7.56203 2.71101 8.98903 3.96001 9.82403C3.19601 9.79903 2.47801 9.59003 1.85001 9.24103V9.30103C1.85001 11.558 3.45501 13.441 5.58701 13.869C5.19501 13.975 4.78401 14.031 4.36001 14.031C4.06001 14.031 3.76701 14.003 3.48301 13.949C4.07601 15.799 5.79601 17.147 7.83501 17.183C6.24001 18.433 4.23101 19.178 2.04901 19.178C1.67301 19.178 1.30201 19.156 0.937012 19.113C2.99901 20.436 5.44701 21.206 8.07701 21.206C16.647 21.206 21.332 14.108 21.332 7.95203C21.332 7.75203 21.327 7.55003 21.318 7.35003C22.228 6.69203 23.018 5.87303 23.641 4.94003L23.643 4.93703Z" stroke="#4D4D4D" stroke-miterlimit="10" stroke-linecap="round" stroke-linejoin="round"/>
</g>
<defs>
<clipPath id="clip0_1638_23131">
<rect width="24" height="24" fill="white"/>
</clipPath>
</defs>
</svg>
