<svg width="24" height="24" viewBox="0 0 24 24" fill="none" xmlns="http://www.w3.org/2000/svg">
<path d="M9.7125 18.4875C10.4622 18.6637 11.2299 18.7518 12 18.75C18.45 18.75 23.0625 12.1875 23.0625 12.1875C22.0397 10.824 20.8419 9.60095 19.5 8.55M12 16.5C13.1935 16.5 14.3381 16.0259 15.182 15.182C16.0259 14.3381 16.5 13.1935 16.5 12M15.1875 8.8125C14.3421 7.96712 13.1955 7.49219 12 7.49219C10.8045 7.49219 9.65788 7.96712 8.8125 8.8125C7.96712 9.65788 7.49219 10.8045 7.49219 12C7.49219 13.1955 7.96712 14.3421 8.8125 15.1875M23.25 0.75L0.75 23.25M17.0625 6.9375C15.5063 6.09612 13.7689 5.64568 12 5.625C5.55 5.625 0.9375 12.1875 0.9375 12.1875C2.49582 14.2624 4.46085 15.9977 6.7125 17.2875L17.0625 6.9375Z" stroke="#4D4D4D" stroke-miterlimit="10" stroke-linecap="round" stroke-linejoin="round"/>
</svg>
