<svg width="24" height="24" viewBox="0 0 24 24" fill="none" xmlns="http://www.w3.org/2000/svg">
<path d="M16.575 8.175C17.2346 8.57653 17.7797 9.14104 18.158 9.81421C18.5363 10.4874 18.735 11.2466 18.735 12.0187C18.735 12.7909 18.5363 13.5501 18.158 14.2233C17.7797 14.8965 17.2346 15.461 16.575 15.8625M18.75 6C19.6815 6.6986 20.4375 7.60448 20.9582 8.6459C21.4789 9.68731 21.75 10.8357 21.75 12C21.75 13.1643 21.4789 14.3127 20.9582 15.3541C20.4375 16.3955 19.6815 17.3014 18.75 18M14.25 2.25L7.5 9H3C2.80109 9 2.61032 9.07902 2.46967 9.21967C2.32902 9.36032 2.25 9.55109 2.25 9.75V14.25C2.25 14.4489 2.32902 14.6397 2.46967 14.7803C2.61032 14.921 2.80109 15 3 15H7.5L14.25 21.75V2.25Z" stroke="#4D4D4D" stroke-miterlimit="10" stroke-linecap="round" stroke-linejoin="round"/>
</svg>
