<svg width="24" height="24" viewBox="0 0 24 24" fill="none" xmlns="http://www.w3.org/2000/svg">
<path d="M15.75 7.75C15.4739 7.75 15.25 7.97386 15.25 8.25C15.25 8.52614 15.4739 8.75 15.75 8.75V7.75ZM19.5 8.25V7.75V8.25ZM9.75 12H10.25V11.9995L9.75 12ZM10.315 11.3495C10.37 11.0789 10.1951 10.815 9.9245 10.76C9.65388 10.705 9.38995 10.8799 9.335 11.1505L10.315 11.3495ZM8.25 16.25C8.52614 16.25 8.75 16.0261 8.75 15.75C8.75 15.4739 8.52614 15.25 8.25 15.25V16.25ZM0.75 12H0.25H0.75ZM10.5 8.25V7.75V8.25ZM14.25 12H13.75V12.0005L14.25 12ZM13.685 12.6505C13.63 12.9211 13.8049 13.185 14.0755 13.24C14.3461 13.295 14.61 13.1201 14.665 12.8495L13.685 12.6505ZM15.75 8.75H19.5V7.75H15.75V8.75ZM19.5 8.75C20.362 8.75 21.1886 9.09241 21.7981 9.7019L22.5052 8.9948C21.7082 8.19777 20.6272 7.75 19.5 7.75V8.75ZM21.7981 9.7019C22.4076 10.3114 22.75 11.138 22.75 12H23.75C23.75 10.8728 23.3022 9.79183 22.5052 8.9948L21.7981 9.7019ZM22.75 12C22.75 12.862 22.4076 13.6886 21.7981 14.2981L22.5052 15.0052C23.3022 14.2082 23.75 13.1272 23.75 12H22.75ZM21.7981 14.2981C21.1886 14.9076 20.362 15.25 19.5 15.25V16.25C20.6272 16.25 21.7082 15.8022 22.5052 15.0052L21.7981 14.2981ZM19.5 15.25H13.5V16.25H19.5V15.25ZM13.5 15.25C12.638 15.25 11.8114 14.9076 11.2019 14.2981L10.4948 15.0052C11.2918 15.8022 12.3728 16.25 13.5 16.25V15.25ZM11.2019 14.2981C10.5924 13.6886 10.25 12.862 10.25 12H9.25C9.25 13.1272 9.69777 14.2082 10.4948 15.0052L11.2019 14.2981ZM10.25 11.9995C10.2498 11.7812 10.2716 11.5634 10.315 11.3495L9.335 11.1505C9.27819 11.4303 9.24972 11.715 9.25 12.0005L10.25 11.9995ZM8.25 15.25H4.5V16.25H8.25V15.25ZM4.5 15.25C4.0732 15.25 3.65059 15.1659 3.25628 15.0026L2.8736 15.9265C3.38923 16.1401 3.94188 16.25 4.5 16.25V15.25ZM3.25628 15.0026C2.86197 14.8393 2.50369 14.5999 2.2019 14.2981L1.4948 15.0052C1.88945 15.3999 2.35796 15.7129 2.8736 15.9265L3.25628 15.0026ZM2.2019 14.2981C1.59241 13.6886 1.25 12.862 1.25 12H0.25C0.25 13.1272 0.697767 14.2082 1.4948 15.0052L2.2019 14.2981ZM1.25 12C1.25 11.138 1.59241 10.3114 2.2019 9.7019L1.4948 8.9948C0.697767 9.79183 0.25 10.8728 0.25 12H1.25ZM2.2019 9.7019C2.8114 9.09241 3.63805 8.75 4.5 8.75V7.75C3.37283 7.75 2.29183 8.19777 1.4948 8.9948L2.2019 9.7019ZM4.5 8.75H10.5V7.75H4.5V8.75ZM10.5 8.75C11.362 8.75 12.1886 9.09241 12.7981 9.7019L13.5052 8.9948C12.7082 8.19777 11.6272 7.75 10.5 7.75V8.75ZM12.7981 9.7019C13.4076 10.3114 13.75 11.138 13.75 12H14.75C14.75 10.8728 14.3022 9.79183 13.5052 8.9948L12.7981 9.7019ZM13.75 12.0005C13.7502 12.2188 13.7284 12.4366 13.685 12.6505L14.665 12.8495C14.7218 12.5697 14.7503 12.285 14.75 11.9995L13.75 12.0005Z" fill="#4D4D4D"/>
</svg>
