<svg width="24" height="24" viewBox="0 0 24 24" fill="none" xmlns="http://www.w3.org/2000/svg">
<path d="M4 2.00006C8.7739 2.00006 13.3523 3.89648 16.7279 7.27214C20.1036 10.6478 22 15.2262 22 20.0001M4 7.33339C7.35941 7.33339 10.5812 8.66791 12.9567 11.0434C15.3321 13.4188 16.6667 16.6407 16.6667 20.0001M4 12.6667C4.96303 12.6667 5.91662 12.8564 6.80634 13.2249C7.69607 13.5935 8.50449 14.1336 9.18545 14.8146C9.86641 15.4956 10.4066 16.304 10.7751 17.1937C11.1437 18.0834 11.3333 19.037 11.3333 20.0001M6 20.0001C6 21.1046 5.10457 22.0001 4 22.0001C2.89543 22.0001 2 21.1046 2 20.0001C2 18.8955 2.89543 18.0001 4 18.0001C5.10457 18.0001 6 18.8955 6 20.0001Z" stroke="#4D4D4D" stroke-miterlimit="10" stroke-linecap="round" stroke-linejoin="round"/>
</svg>
