<svg width="24" height="24" viewBox="0 0 24 24" fill="none" xmlns="http://www.w3.org/2000/svg">
<g clip-path="url(#clip0_1848_35505)">
<path d="M12 23.2501C15.3344 23.2501 18.0375 18.2133 18.0375 12.0001C18.0375 5.78686 15.3344 0.750061 12 0.750061M12 23.2501C8.66558 23.2501 5.9625 18.2133 5.9625 12.0001C5.9625 5.78686 8.66558 0.750061 12 0.750061M12 23.2501V0.750061M12 23.2501C18.2132 23.2501 23.25 18.2133 23.25 12.0001C23.25 5.78686 18.2132 0.750061 12 0.750061M12 23.2501C5.78679 23.2501 0.75 18.2133 0.75 12.0001C0.75 5.78686 5.78679 0.750061 12 0.750061M1.6875 16.5001H22.3125M1.6875 7.50006H22.3125" stroke="#4D4D4D" stroke-miterlimit="10" stroke-linecap="round" stroke-linejoin="round"/>
</g>
<defs>
<clipPath id="clip0_1848_35505">
<rect width="24" height="24" fill="white"/>
</clipPath>
</defs>
</svg>
