<svg width="24" height="24" viewBox="0 0 24 24" fill="none" xmlns="http://www.w3.org/2000/svg">
<g clip-path="url(#clip0_1639_22489)">
<path d="M9.34953 5.80241C9.26697 5.62833 9.13788 5.48048 8.97653 5.37518C8.81518 5.26989 8.62786 5.21127 8.43528 5.20579H5.20128C5.1135 5.1996 5.02559 5.21568 4.94568 5.25252C4.86577 5.28936 4.79645 5.34577 4.74415 5.41654C4.70697 5.49446 4.69067 5.5807 4.69685 5.66682C4.70303 5.75294 4.73148 5.83597 4.7794 5.90779L6.9589 9.69866V9.73391L3.54865 15.7714C3.50539 15.846 3.4826 15.9308 3.4826 16.017C3.4826 16.1033 3.50539 16.188 3.54865 16.2627C3.59033 16.3355 3.65263 16.3944 3.7277 16.4319C3.80277 16.4694 3.88726 16.4838 3.97053 16.4734H7.2049C7.39777 16.4679 7.58457 16.4048 7.74123 16.2922C7.8979 16.1796 8.01725 16.0226 8.0839 15.8415C8.0839 15.8415 11.4589 9.87416 11.5995 9.66379C11.5647 9.66379 9.34953 5.80241 9.34953 5.80241Z" stroke="#4D4D4D" stroke-miterlimit="10" stroke-linecap="round" stroke-linejoin="round"/>
<path d="M22.5334 1.45016C22.5849 1.37862 22.6126 1.29269 22.6126 1.20454C22.6126 1.11638 22.5849 1.03045 22.5334 0.958912C22.4917 0.886078 22.4294 0.827203 22.3544 0.789701C22.2793 0.752199 22.1948 0.737746 22.1115 0.748162H18.8419C18.649 0.753556 18.4622 0.816591 18.3054 0.929145C18.1487 1.0417 18.0293 1.19861 17.9625 1.37966C17.9625 1.37966 10.9669 13.7704 10.7558 14.1567C10.7558 14.1919 15.3612 22.6163 15.3612 22.6163C15.4415 22.7948 15.5691 22.948 15.7302 23.0593C15.8912 23.1706 16.0796 23.2357 16.275 23.2478H19.5094C19.5927 23.2582 19.6772 23.2438 19.7522 23.2062C19.8273 23.1687 19.8896 23.1099 19.9313 23.037C19.9661 22.9598 19.9841 22.8761 19.9841 22.7914C19.9841 22.7067 19.9661 22.623 19.9313 22.5458L15.3615 14.1919V14.1567L22.5334 1.45016Z" stroke="#4D4D4D" stroke-miterlimit="10" stroke-linecap="round" stroke-linejoin="round"/>
</g>
<defs>
<clipPath id="clip0_1639_22489">
<rect width="24" height="24" fill="white"/>
</clipPath>
</defs>
</svg>
