<svg xmlns="http://www.w3.org/2000/svg" fill="none" viewBox="0 0 24 24"><path stroke="currentColor" stroke-width="2" d="m11.891 4.293.473.363.544-.243c1.035-.463 2.49-.9 3.776-.797.627.05 1.172.223 1.616.546.436.318.84.827 1.114 1.667 1.224 3.754.246 7.605-.376 9.004l-.005.012-2.323 5.43q-.183-.19-.382-.407c-.772-.846-1.554-1.857-1.897-2.732-.213-.546-.45-1.084-.713-1.53-.242-.41-.604-.912-1.138-1.163-.3-.14-.65-.2-1.018-.119a1.86 1.86 0 0 0-.87.479c-.433.405-.79 1.037-1.114 1.81-.313.747-1.085 1.91-1.84 2.952q-.261.362-.499.676a40 40 0 0 1-.562-.993C5.962 17.944 5.18 16.335 4.8 14.97c-.394-1.41-.762-3.45-.797-5.418-.036-2.022.285-3.726 1.035-4.684.69-.882 1.712-1.554 2.882-1.749 1.146-.191 2.52.06 3.971 1.174Z"/></svg>